<svg version="1" xmlns="http://www.w3.org/2000/svg" width="1141.333" height="1141.333" viewBox="0 0 856.000000 856.000000"><path d="M450.5.7c-46.8 10.1-89.4 38.8-115.6 77.7-8.2 12.2-13.3 22.5-18.4 37.3-.2.7-1.8-.2-3.8-2.2-4.4-4.4-9-4.7-15.4-.9-13.7 8-32.7 44.1-39.5 75.1-3.3 15.1-3.1 41.1.6 63.8 5.1 31.6 10.4 50.9 19.1 69.2 4.6 9.7 13.3 23.8 19.3 31.1 1.9 2.3 3.3 4.5 3 4.7-.3.3-2.6 2-5 3.8-8.8 6.2-23.9 20.1-32.8 30.2-20.7 23.3-37 46.5-60.4 86.3-21.6 36.4-31 57.9-38 86.4-6.1 24.6-9.2 55-8 78.8l.6 12.5-7.2 5.5c-16.6 12.7-30.1 31.3-34.6 47.5-1.8 6.6-1.7 17.4.2 25.5 1.9 8.4 8.8 22.6 15.3 31.7 15.1 21.3 49.1 49.8 74.9 62.7 23.2 11.6 58.3 21.3 94.2 26.1 18.9 2.6 59.6 3.1 78.7 1.1 49.6-5.3 90.1-17.5 143.3-43.2 56.8-27.5 94-59.2 107-91.3 4.8-11.7 6.3-20.9 5.7-33.5-.7-13.4-2.4-20.2-8.2-32.3-7.4-15.3-19.9-28.9-32.5-35.3l-3.6-1.9-1.8-14.8c-3.5-29.1-16.4-101.3-25.1-140.3-14.1-63.2-27.5-97-44.2-110.7-15.7-12.9-35.6-19.8-49.9-17.3-8.5 1.4-14 4.3-23.3 11.9-4.1 3.3-7.6 5.9-7.7 5.8-.1-.1-.9-4.9-1.9-10.7-.9-5.8-2.7-14-4-18.3l-2.2-7.8 4.6.7c8 1.3 15.5.7 20.9-1.6 9.6-4.1 16.2-14.7 16.2-25.8V282l6.1 3.1c37 18.6 88.5 24 114.4 12 6.1-2.8 10.4-6.3 14.1-11.6l2-2.9 3.5 2.7c5.8 4.3 21.9 11.5 30.9 13.7 11.6 2.7 27.8 2.7 38.6 0 20.3-5.2 37.1-17.6 49.3-36.5 18.4-28.5 17.4-61.3-3.4-110-14.6-34.2-32.2-61.1-54.5-83.6-44.1-44.2-88.3-51-160-24.4-8.3 3.1-15.3 5.5-15.5 5.3-.2-.2.6-3 1.7-6.3 2.7-7.8 2.9-18.4.5-24.7-3.2-8.1-11.2-14.2-23.2-17.4-4.6-1.3-20.4-1.7-25-.7zm15.2 420.6c6.7 3.5 16.7 12.7 21.4 20 8.4 12.9 14.9 37.6 18.9 71.6 1.1 9.4 2.9 67.6 3 94.7v14.1l-7.8 4.6c-11.6 6.7-22.6 15.4-33.1 26.1-5.6 5.8-9.1 8.7-8.7 7.3.4-1.2 1.3-8.3 2.1-15.7 3.4-32.2.4-60.5-8.1-75.7-4.2-7.6-13.4-17.2-18.8-19.7-6.4-3-16.2-.9-22.4 4.8-3.2 2.8-5.9 8.3-7.7 15.4l-1.5 5.7.6-9.6c2.4-43.1 2.2-64.8-.9-80.9-1.1-5.7-1.1-7.4.6-14 6.4-26.3 20.5-44.5 39.2-50.7 6.3-2 17-1.1 23.2 2zm-103.1 14.2c7.9 3.5 14 8.8 17 14.6 2.9 5.7 8.5 24.7 11.1 37.6 2.6 12.7 2.4 52-.5 87.3-1.2 14.6-2.6 39.1-3.2 54.5-.6 15.3-1.2 28-1.3 28.1-.1 0-1.7.4-3.6.8-2.9.5-3.2.4-2.6-1.2 3.4-8.7 7.7-50.1 7.9-75.2.1-18.8-.5-20.9-9-30-8.3-8.9-18.5-11.1-28.3-6.1-9.3 4.8-18.9 18.3-21 29.6-3.1 16.7-2 66.8 1.9 85.5 1.1 5.2 1.6 9.8 1.2 10.2-1.7 1.7-15.6 2.8-23.2 1.9-14.9-1.9-24-6-37.3-16.8-4.2-3.4-8.9-7-10.4-8l-2.6-1.7.6-23.1c1-35.7 3.5-55.5 10.9-85 8.4-33.7 18.8-60.3 29.2-75 10.6-14.8 26.5-25.7 42.1-28.9 10.3-2.1 14.7-1.9 21.1.9zm40.1 144.2c-.3 1-.5.2-.5-1.7s.2-2.7.5-1.8c.2 1 .2 2.6 0 3.5zm-1 14.5c-.3.7-.5.2-.5-1.2s.2-1.9.5-1.3c.2.7.2 1.9 0 2.5zm1.2 49.8c.6 4.7 1.4 10 1.7 11.9.6 3 .5 3.3-1 2.8-1-.4-2.4-.7-3.2-.7-1.7 0-1.8-6.5-.7-35.5l.8-19 .6 16c.4 8.8 1.2 19.8 1.8 24.5z"/></svg>