<svg id="Layer_1" data-name="Layer 1" xmlns="http://www.w3.org/2000/svg" viewBox="0 0 337.09 353.04"><defs><style>.cls-1{font-size:21px;font-family:CMUSerif-BoldItalic, CMU Serif;font-weight:700;}.cls-1,.cls-15,.cls-26{font-style:italic;}.cls-2{letter-spacing:-0.09em;}.cls-3{letter-spacing:-0.06em;}.cls-4{letter-spacing:0em;}.cls-5{letter-spacing:0.06em;}.cls-6{font-size:14px;}.cls-16,.cls-17,.cls-18,.cls-19,.cls-20,.cls-21,.cls-24,.cls-6{font-family:CMUTypewriter-Regular, CMU Typewriter Text;}.cls-25,.cls-7,.cls-8{fill:none;}.cls-7{stroke:#000;stroke-width:2px;}.cls-7,.cls-8{stroke-miterlimit:10;}.cls-8{stroke:#3b82f6;stroke-width:0.5px;}.cls-9{fill:#3b82f6;}.cls-10{font-size:8px;font-family:CMUSerif-Roman, CMU Serif;}.cls-11{letter-spacing:-0.08em;}.cls-12{letter-spacing:0.06em;}.cls-13{letter-spacing:-0.03em;}.cls-14{letter-spacing:0.03em;}.cls-15{font-size:10px;fill:#a627a4;font-family:CMUTypewriter-Italic, CMU Typewriter Text;}.cls-16,.cls-17,.cls-18,.cls-19,.cls-20,.cls-21,.cls-24{font-style:normal;}.cls-16,.cls-18,.cls-24{fill:#000;}.cls-17,.cls-20,.cls-21,.cls-23{fill:#e06c75;}.cls-18,.cls-23{letter-spacing:0em;}.cls-19{fill:#4e7bea;}.cls-19,.cls-20,.cls-24{letter-spacing:0em;}.cls-21{letter-spacing:-0.08em;}.cls-22{letter-spacing:3.08em;}.cls-26{font-size:18px;fill:#ed1c24;font-family:CMUClassicalSerif-Italic, CMU Classical Serif;}</style></defs><text class="cls-1" transform="translate(18.76 19.47) scale(1 1.1)"><tspan class="cls-2">T</tspan><tspan class="cls-3" x="14.87" y="0">r</tspan><tspan x="24.17" y="0">aj</tspan><tspan class="cls-3" x="44.03" y="0">e</tspan><tspan x="53.96" y="0">ctory </tspan><tspan class="cls-2" x="116.63" y="0">F</tspan><tspan class="cls-4" x="130.04" y="0">o</tspan><tspan class="cls-5" x="142.45" y="0">l</tspan><tspan x="149.92" y="0">lowing Flow:</tspan></text><text class="cls-6" transform="translate(90.5 56.47) scale(1 1.1)">.followTrajectory()</text><line class="cls-7" x1="160.32" y1="69.14" x2="160.32" y2="125.57"/><path d="M200,159.5c-2.11-5.68-5.7-12.73-9.51-17.09l9.51,3.44,9.51-3.44C205.7,146.77,202.11,153.82,200,159.5Z" transform="translate(-39.68 -21.86)"/><path class="cls-8" d="M211.5,145.5c36.82,0,38.73-42.24,3.34-44.87" transform="translate(-39.68 -21.86)"/><polygon class="cls-9" points="171.63 78.64 176.69 76.83 175.42 78.81 176.51 80.89 171.63 78.64"/><path class="cls-8" d="M187.4,100.61c-36.82,0-38.73,42.24-3.34,44.87" transform="translate(-39.68 -21.86)"/><polygon class="cls-9" points="147.9 123.75 142.84 125.56 144.11 123.58 143.03 121.5 147.9 123.75"/><text class="cls-10" transform="translate(208.47 96.88)"><tspan class="cls-11">T</tspan><tspan x="5.11" y="0">r</tspan><tspan class="cls-12" x="8.23" y="0">a</tspan><tspan x="12.68" y="0">jectory foll</tspan><tspan class="cls-13" x="50.19" y="0">o</tspan><tspan x="53.97" y="0">wing l</tspan><tspan class="cls-14" x="75.27" y="0">o</tspan><tspan x="79.49" y="0">ops u</tspan><tspan class="cls-13" x="98.18" y="0">n</tspan><tspan x="102.39" y="0">til</tspan><tspan x="0" y="9.6">motion profile is exhausted </tspan></text><text class="cls-15" transform="translate(0 191.88) scale(1 1.1)">if<tspan class="cls-16" x="10.5" y="0"> </tspan><tspan class="cls-17" x="15.75" y="0">timer</tspan><tspan class="cls-18" x="41.99" y="0">.</tspan><tspan class="cls-19" x="47.24" y="0">seconds</tspan><tspan class="cls-18" x="83.98" y="0">() &gt; </tspan><tspan class="cls-20" x="110.23" y="0">timeou</tspan><tspan class="cls-21" x="141.72" y="0">t</tspan><tspan class="cls-16" x="146.17" y="0">:</tspan><tspan class="cls-16"><tspan class="cls-22" x="0" y="10.91">	</tspan><tspan class="cls-23" x="36" y="10.91">finish</tspan><tspan x="67.49" y="10.91">()</tspan></tspan></text><text class="cls-15" transform="translate(168.75 191.54) scale(1 1.1)">if<tspan class="cls-16" x="10.5" y="0"> </tspan><tspan class="cls-17" x="15.75" y="0">poseError </tspan><tspan class="cls-24" x="68.24" y="0">&lt; </tspan><tspan class="cls-20" x="78.73" y="0">admissibleError</tspan><tspan class="cls-18" x="157.47" y="0">:</tspan><tspan class="cls-16"><tspan class="cls-22" x="0" y="10.91">	</tspan><tspan class="cls-23" x="36" y="10.91">finish</tspan><tspan x="67.49" y="10.91">()</tspan></tspan></text><line class="cls-7" x1="160.32" y1="252.7" x2="160.32" y2="309.13"/><path d="M200,343.06c-2.11-5.68-5.7-12.73-9.51-17.1l9.51,3.45,9.51-3.45C205.7,330.33,202.11,337.38,200,343.06Z" transform="translate(-39.68 -21.86)"/><path class="cls-25" d="M93,203" transform="translate(-39.68 -21.86)"/><path class="cls-8" d="M251,198.5c-1-31-46-30.5-49.5-30.5s-49.26-.47-52.34,27.48" transform="translate(-39.68 -21.86)"/><path class="cls-9" d="M149,198.5a15,15,0,0,0-2.1-4.42l2.32,1,2.43-.7A15.26,15.26,0,0,0,149,198.5Z" transform="translate(-39.68 -21.86)"/><path class="cls-8" d="M149,233.81c1,31,46,30.5,49.5,30.5s49.26.46,52.34-27.49" transform="translate(-39.68 -21.86)"/><path class="cls-9" d="M251,233.81a15,15,0,0,0,2.1,4.41l-2.32-1-2.43.71A15.26,15.26,0,0,0,251,233.81Z" transform="translate(-39.68 -21.86)"/><text class="cls-10" transform="translate(208.47 96.88)"><tspan class="cls-11">T</tspan><tspan x="5.11" y="0">r</tspan><tspan class="cls-12" x="8.23" y="0">a</tspan><tspan x="12.68" y="0">jectory foll</tspan><tspan class="cls-13" x="50.19" y="0">o</tspan><tspan x="53.97" y="0">wing l</tspan><tspan class="cls-14" x="75.27" y="0">o</tspan><tspan x="79.49" y="0">ops u</tspan><tspan class="cls-13" x="98.18" y="0">n</tspan><tspan x="102.39" y="0">til</tspan><tspan x="0" y="9.6">motion profile is exhausted </tspan></text><text class="cls-26" transform="translate(149.76 346.03) scale(1 1.1)">fin</text><text class="cls-10" transform="translate(194.55 246.85)">PID Co<tspan class="cls-13" x="26.86" y="0">n</tspan><tspan x="31.07" y="0">trollers still retains co</tspan><tspan class="cls-13" x="107.56" y="0">n</tspan><tspan x="111.77" y="0">trol and</tspan><tspan x="0" y="9.6">actuates the dri</tspan><tspan class="cls-13" x="55.08" y="9.6">v</tspan><tspan x="59.07" y="9.6">etrain u</tspan><tspan class="cls-13" x="86.6" y="9.6">n</tspan><tspan x="90.81" y="9.6">til one of these</tspan><tspan x="0" y="19.2">conditions is met</tspan></text><text x="-39.68" y="-21.86"/></svg>