<svg xmlns="http://www.w3.org/2000/svg" viewBox="0 0 157.81 214.43"><defs><style>.cls-1,.cls-3{fill:#1f429e;}.cls-1,.cls-2,.cls-3,.cls-4,.cls-5,.cls-6,.cls-7,.cls-8,.cls-9{stroke:#000;stroke-width:3px;}.cls-1,.cls-3,.cls-4,.cls-5,.cls-9{stroke-linecap:round;}.cls-1,.cls-5,.cls-9{stroke-linejoin:round;}.cls-2{fill:#331a7c;}.cls-2,.cls-3,.cls-4,.cls-6,.cls-7,.cls-8{stroke-miterlimit:10;}.cls-4,.cls-8,.cls-9{fill:none;}.cls-5{fill:#fff;}.cls-6{fill:#ffa008;}.cls-7{fill:#f98080;}</style></defs><g id="Layer_2" data-name="Layer 2"><path class="cls-1" d="M157.05,125.19c-1.14,2.11-3.33,5.18-6.86,6.47-9.23,3.38-19.85-8.21-21.63-10.14-8-8.78-9.64-19.21-10.71-26.22-.66-4.3-1.34-9-.2-14.93,2-10.22,8.34-19.32,10.72-18.56s.8,11.42,1.53,11.48c.53,0,1.13-5.6,2-9.26,4.58-19.41,28.19-31.57,37.81-29.58,1.1.22,3.95.81,5.16,3.06,1.3,2.41.1,5.62-.17,6.33-1,2.57-2.36,3.28-2.12,3.81.77,1.76,15.39-7.78,29.08-5.93,21.24,2.87,31.44,32,32.15,34.06,1.76,5.23,3.86,11.79,1,18.76-.48,1.15-3.94,9.08-12.63,11.48s-16.09-2.36-18.26-4.4a17.77,17.77,0,0,1-1.45-1.53A16.22,16.22,0,0,1,199,93.2c.12,0,4.81,6.2,3.06,10-2.75,5.88-21.4,5.63-34.26-2.68,0,0-2.46-2.15-2.68-1.92s2.29,1.86,2.87,4.6a6.44,6.44,0,0,1-1.91,6.12c-2.56,2.11-6.34.79-7.8.28-4.11-1.43-6.43-4.6-6.55-4.49a19.68,19.68,0,0,1,5.74,6.7c1.28,2.7,2.33,9.77,2.18,11.86" transform="translate(-79.9 -32.73)"/><path class="cls-2" d="M143.63,122.69c1.09,1.38,2,2.87,4.52,3.42" transform="translate(-79.9 -32.73)"/><path class="cls-3" d="M159.64,123.62c4.82-2.5,5.22-4.69,8.61-5.55,4.44-1.11,8.61,1.45,10.33,2.49,5.48,3.32,9.83,10.44,16.84,51.29,2.06,12,2.94,18.67,2.11,27.55-.36,3.79-1.21,12.9-4.21,19.14-12.34,25.63-75,32.05-92.24,8.23-4.52-6.24-6.3-15.05-7.46-20.86a74.49,74.49,0,0,1-.2-29.09c2.34-11.27,6.89-18.8,11.1-25.64,0,0,11.8-21.72,24.92-28.91.55-.3,1.11-.55,1.11-.55.2-.1,5.13-2.3,9.18-1.54a6,6,0,0,1,3.9,2.52" transform="translate(-79.9 -32.73)"/><path class="cls-4" d="M102.9,161.63a144.74,144.74,0,0,1,16.75-29.3,29.27,29.27,0,0,1,10.73-9.07c3.07-1.51,7.47-3.66,11.13-2.1s5.46,6.23,4.58,11.52" transform="translate(-79.9 -32.73)"/></g><g id="Eyes"><path class="cls-5" d="M150.87,150.87c.6-2.5,1.83-8,6.44-11.89,1.24-1,4-3.27,7.77-3.13s6.32,2.56,7.59,3.79c3.18,3.08,5.23,7.44,6.85,18.42.59,4,1,8.08,1.08,28.48,0,10.37,0,11.79-.66,14.12s-4,15.19-14,17.84a14.57,14.57,0,0,1-12.71-2.65,14.41,14.41,0,0,1-4.46-7.76C142.9,185.5,149.68,155.89,150.87,150.87Z" transform="translate(-79.9 -32.73)"/><path class="cls-5" d="M116.07,206.87A90.61,90.61,0,0,1,115,187.63a88.55,88.55,0,0,1,2.72-20.39c2.53-9.49,5.84-22,15.79-26.16a18.72,18.72,0,0,1,7.58-1.43c4.77,1.45,6.38,3.93,6.91,4.89a26,26,0,0,1,1.62,4.5s.58,1.89,1,3.8h0c0,.16.06.28.08.34,2.13,9.21,0,21.14-.49,33.87-.1,2.78-.6,20.81-1.32,24.36-1.39,6.87-.4,5.23-2,7.6-4.67,7-23.35,5.57-29-4.46C117.11,213.16,116.76,211.06,116.07,206.87Z" transform="translate(-79.9 -32.73)"/><path d="M136.52,202.74c-1.13-1-3.22-3.62-2.83-20.81.09-4.2.35-6.68,2-9,.4-.55,3-4.36,6.67-4.07,2.84.22,4.67,2.84,5.14,3.52,1.47,2.1,1.66,4,.22,18.72-.29,3.06-.59,5.79-2.29,8.79-.81,1.41-2.48,4.34-5.08,4.53A5.49,5.49,0,0,1,136.52,202.74Z" transform="translate(-79.9 -32.73)"/><path d="M154.84,201.39c-.61-.56-2-2-2.65-11.5a89.9,89.9,0,0,1,.4-12.47s.38-4.62,2.61-6.38l.12-.09a6.55,6.55,0,0,1,3.41-1.13c3.12-.1,5.92,4.45,6.21,4.93a15.18,15.18,0,0,1,1.93,5.42,49.8,49.8,0,0,1,.14,15c0,3.89-2.23,7.13-5.27,8A7.38,7.38,0,0,1,154.84,201.39Z" transform="translate(-79.9 -32.73)"/></g><g id="Mouth"><path class="cls-6" d="M99,194.25c-1.23.4-3.56,1.44-3.73,1.52h0l-.46.25c-11.43,6.19-13.17,14.62-13.17,14.62-2.44,12.89,17.09,25.17,19.12,26.41,0,0,1,.6,1.93,1.15,3.63,2.07,33.33,15.24,68.89.75,8.44-3.44,37.11-15.12,37.32-33.09.08-6.52-3.59-13.47-9.38-16.65-8.8-4.85-22.56-1.09-32.15,10.91,0,0-3.44,4.78-5.93,3.44s-7.64-5.16-12.62-4.59A74.57,74.57,0,0,0,136.53,202s-6.69,3.06-14.73-1.34c-2.85-1.56-4.58-4.43-9.57-6.26a19.32,19.32,0,0,0-5.19-1.08A23.53,23.53,0,0,0,99,194.25Z" transform="translate(-79.9 -32.73)"/><path class="cls-7" d="M135.55,223.21c-.9,4.51,2.78,8.31,3.52,9a14.73,14.73,0,0,0,6.16,3.3,13.14,13.14,0,0,0,7.05.83,10.1,10.1,0,0,0,4.63-2.15,13.31,13.31,0,0,0,2.42-3.08c1.87-2.92,2.88-4.37,3.3-6.61a9.84,9.84,0,0,0-.44-6.16,4.14,4.14,0,0,0-.39-.65c-1.3-1.63-3-2.79-8.64-4.42a36,36,0,0,0-3.5-.94c-3.77-.19-6.66,2.33-9.06,4.43C137.55,219.46,136,220.8,135.55,223.21Z" transform="translate(-79.9 -32.73)"/><path class="cls-4" d="M152,227.06a24.18,24.18,0,0,0-1.21-14" transform="translate(-79.9 -32.73)"/><path class="cls-8" d="M120.13,210.88c-1.41,4.45-.54,8.85,2.2,11s6.35,1.36,8.59.88c4.31-.92,7.62-4.1,10.13-6.39,2-1.8,2.12-2.32,3.52-3.08,3.56-1.92,7.43-1.17,8.81-.88,4.88,1,4.82,3.26,9.69,4.84,1.88.61,8.14,2.65,11.67-.66s1.89-9.63,1.76-10.12" transform="translate(-79.9 -32.73)"/><path class="cls-9" d="M174.41,206a16.64,16.64,0,0,1,16.52,2.2" transform="translate(-79.9 -32.73)"/><path class="cls-4" d="M104.94,214.18a32.78,32.78,0,0,1,9.69-3.3,32.06,32.06,0,0,1,6.82-.44" transform="translate(-79.9 -32.73)"/></g></svg>